<svg xmlns="http://www.w3.org/2000/svg" viewBox="0 0 364.21 439.86"><title>Theodorus</title><path fill="#748A98" d="M352.78,255.5v-0.94c-8.27-5.51-15.55-12.44-15.92-22.68-0.41-11.59,1-23.29,2.24-34.87,1.84-16.87,5.33-33.57,3.23-50.73-2-16.32-7.36-31.22-21.38-40.46-8.93-5.89-12.62-13-15.3-23-7.56-28-27.23-45.75-53.31-56.44-29.83-12.23-61-15.37-92.79-10.25-24.85,4-45.59,15.58-60.63,36.33C88.48,66.9,82.67,83.28,78.3,100.33A10.49,10.49,0,0,1,74.94,106c-8.2,5.9-11.41,21.12-4.62,28.74,3.73,4.18,3.41,7.88,3.36,12.53-0.06,5.7-2,10.27-4.71,15.21a59,59,0,0,0-6.9,19.62c-0.83,6.12,1.38,12.59,1.71,18.93,0.35,6.85.08,13.74,0.08,20.67-6.42-2.13-12-4.54-17.91-5.82C33.22,213.08,24,220,24.29,232.74c0.34,16.16,6.76,29.42,21.85,37.13,4,2,8.33,3.31,12.74,5a23.21,23.21,0,0,1-.49,3.6c-8,27.11-18.06,53-37.12,74.81-16,18.31-12.19,35.79,9.24,47.05,20.46,10.75,42.32,17.53,65,21.72,8.56,1.58,17.2,2.68,25.81,4H156c8.13-1.33,16.44-2,24.35-4.13q26.81-7.28,53.23-15.92c5.19-1.7,10-5.18,14.4-8.55,8.3-6.33,11-15.08,8.21-25-1.86-6.56-4.84-12.8-7.29-19.19q-9.36-24.45-18.66-48.92a64.22,64.22,0,0,1-1.59-6.3,30.35,30.35,0,0,1,2.76,2.17c11,11.88,24.28,13.82,39,8.75,12.51-4.31,22.94-11.88,31.84-21.6a9.19,9.19,0,0,0,2.2-3c0.59-1.83,1.4-4.07.79-5.62-0.4-1-3.13-1.51-4.83-1.53-8.69-.13-16.67-2.21-23.43-7.95a10.33,10.33,0,0,1-2.41-3.22C302.27,273.89,328.14,269.12,352.78,255.5Zm-27.19,4.45c-12.1,3.83-11,3.51-13.25-7.49-3.09-14.94.69-29.43,3.81-43.93,1.87-8.67,3.7-17.37,5-26.14,4.11-27.38-17.58-47.29-44.55-41.08-13.71,3.16-22.22,14.41-22.9,30.42-0.44,10.12.32,20,6.25,28.75,0.47,0.7.17,1.92,0.23,2.9-1.12,0-2.68.5-3.27,0-2.13-2-4.56-4.06-5.76-6.62-7.14-15.23-10.25-31.18-6-47.75,5.82-22.52,27.62-33.44,51.47-26.24,20.09,6.06,30.88,19.65,30.74,41.66-0.09,14.58-2.38,29.16-4,43.71-1.51,13.94-4.07,27.85-.52,41.83,0.83,3.27,2.14,6.42,3.18,9.5A2.45,2.45,0,0,1,325.59,259.95Zm-17.7-61c2.56-5.41,2.59-12.49,2.06-18.69-0.31-3.68-3.19-7.88-6.13-10.47-6.72-5.92-15.11-6.37-23.43-4.18-7,1.84-11.33,7.47-11.63,14.74-0.18,4.33.54,8.7,0.53,13.05,0,1.42-1,2.84-1.61,4.26-1.22-.7-2.86-1.11-3.61-2.16-7.32-10.25-6.54-31.91,1.37-41.73,7.15-8.89,22.27-11.28,35-5.62,11.9,5.29,17.37,15.2,16.68,27.37-0.7,12.51-3.66,24.9-5.66,37.34-0.24,1.52-.66,3-1.3,5.89C307.11,211.54,304.43,206.26,307.89,198.94Zm-5,5.72c-8.12-6.2-16.19-9-25.2-9.22a3.45,3.45,0,0,1-2.5-2.2c-0.59-4.46-1.4-9-1-13.43,0.44-5.24,3.83-8.6,9.09-10.07,14.5-4.06,25.77,6,23.5,21.35C306.18,195.34,304.47,199.41,302.94,204.66Zm7.28-99.47c16,9.13,23.54,23.31,26,41s-1.34,34.77-3.33,52.08c-1.1,9.59-1.81,19.23-2.45,28.86-0.59,8.88,2.69,16.48,8.51,23.08,0.91,1,1.71,2.15,3.12,3.95a100,100,0,0,1-10.23,3.88c-0.89.24-3.06-1.17-3.32-2.17-1.58-6-4.16-12.13-3.82-18.08,0.89-15.36,3.46-30.62,4.73-46a300.63,300.63,0,0,0,1.28-35.9c-0.56-14.74-9-25.1-21.21-32.76-18.31-11.49-44.89-9.2-58.93,5.46C240,139.67,237.34,153.4,238,168a85.58,85.58,0,0,0,2.08,14.32c2.15,9.75,5,19.28,12.67,26.55-7.22-1.45-11.7-6.16-15.12-12.07-5-8.58-6.62-18.1-7.41-27.79-1.08-13.14-.72-26.21,3.26-38.92,6.16-19.69,22.26-31.71,42.93-32.32C288.33,97.44,299.65,99.17,310.22,105.19ZM74.93,114.52c1.42-2,4.38-3.51,6.91-4.16,3.41-.88,4.76-2,3-5.42a5.38,5.38,0,0,1-.42-3.43c4.73-19.13,11.77-37.18,25-52.23C124,32.65,143,24,164.51,21.3c29.75-3.72,58.94-.7,86.69,11.15C276,43,293.8,60.4,300.93,87.22c0.56,2.09.91,4.23,1.53,7.18-5.2-.75-9.84-1.58-14.51-2.08-31.5-3.34-59.34,11.77-63.3,51.09-1.73,17.23-1,34.23,4.76,50.82,0.8,2.31.21,5.22-.14,7.8-1.47,10.72-3.67,21.26-10.2,30.26-4.22,5.82-5.16,5.92-11.8,3.41-10.55-4-21.23-2.41-31.82-.22-5.33,1.1-10.54,2.78-15.78,4.3-6.63,1.92-12.17-.18-18-4.6,6-2,9.5-5.68,10.85-11.24,1.07-4.41-.14-8.16-4-10.56-1.14-.71-3.09-0.12-4.67-0.13,0.22,1.5-.1,3.62.77,4.38,3.17,2.79,2.29,5.42.43,8.28s-4.14,1.62-6.86,1c-4-.87-8.48-1.43-12.29-0.4-10.34,2.78-20.38,2-30.44-.76a14.42,14.42,0,0,1-5-2.35c-3-2.36-2.24-5.43.93-7.56,2.42-1.63,5-3.79,6.2-6.33,6.76-14.75,10-30.43,11.27-46.55,0.39-5.13.58-10.28,1-15.41a5.31,5.31,0,0,1,.86-3c3.69-4.06,4.11-9,3.83-14-0.25-4.36-.47-8.73-1-13.06-0.87-6.94-6.31-11.81-13.07-11.51-1.4.06-2.72,1.77-4.07,2.72,1.14,1,2.21,2.91,3.43,3,5.7,0.48,7.88,3.83,8.16,9,0.25,4.67.48,9.35,0.45,14a12.86,12.86,0,0,1-1.07,3.9c-8.19-1-15.71-1.7-23.19-2.78A13.51,13.51,0,0,1,74.93,114.52Zm89.55,158.19c-15.8,0-25.94-6.1-33.06-16.88-3.73-5.65-6.21-12.15-9-18.38-0.48-1.06.32-2.7,0.53-4.07,1.07,0.85,2.57,1.47,3.13,2.58,5.47,10.68,13.26,18.47,25.51,20.72a40,40,0,0,0,25-3.77,192.79,192.79,0,0,0,18.94-11.07c4.88-3.1,14.29-.24,15.95,5.29,0.3,1,.1,2.77-0.57,3.29C196.44,261.8,181.24,271.71,164.48,272.71Zm41.34-9.95a19.12,19.12,0,0,1-1.53,2c-16.25,16.7-48.67,22.36-69.75,12.67-12.53-5.76-18-15.74-19.06-28.79-0.38-4.51-1.52-9.23,2.56-13.7,0.67,2,1.1,3.38,1.64,4.76,1.52,3.92,2.79,8,4.68,11.7,11.54,22.71,31.4,31,55.54,22.84,7.47-2.54,14.42-6.58,21.6-10,1.32-.63,2.57-1.42,3.85-2.13Zm-76.36-30.51c1.2,1.2,2.42,2.4,3.61,3.61,9.19,9.3,19.52,13.31,32.62,8.48,6.47-2.39,13.47-3.32,20.23-4.91l0.33,1.39C161.47,260.85,137.15,254.08,129.45,232.26ZM95.24,146.72c-0.76,6.46-7,11.56-12.72,10.53-1.19-.21-3-1.73-3-2.69a74.54,74.54,0,0,1,.7-11.08,2.45,2.45,0,0,1,1.92-1.41,3.66,3.66,0,0,1,2,2C86.34,150.3,89.4,151.19,95.24,146.72Zm-20.3,17.39A3.82,3.82,0,0,1,78,162.86c13.67,1.48,20.16-2.76,23.73-15.63a5.67,5.67,0,0,1,.92-1.42l1.14,0.33c-0.57,17.42-2,34.73-7.91,51.38-0.84,2.35-1.41,4.88-2.71,6.95a20.1,20.1,0,0,1-5.52,6.23,11.21,11.21,0,0,0-3.86,14.35c0.64,1.2,1.45,2.32,2.5,4-6,1.32-10.75-.68-15.37-3.12-0.71-.38-1.08-2.18-1-3.24A94.05,94.05,0,0,0,68.22,192C66,181.82,69.43,172.59,74.94,164.11ZM42.75,220.69c5.54,2.15,11.12,4.19,16.6,6.5,4.86,2,9.52,4.58,14.41,6.54a23,23,0,0,0,18.48-.07,15.42,15.42,0,0,1-15.66,7.77c-10.14-1.13-27.69-10.85-34.4-19.05Zm-11.39,21c-0.94-6-2.61-11.93,2.28-17.68a77.35,77.35,0,0,0,7.25,5.33c8.49,4.86,16.73,10.42,25.74,14,11.07,4.43,23.44,2.73,30-8.64,0.48-.82,1.94-1.08,2.94-1.59,0.36,1.19,1.29,2.56,1,3.56-2.69,9.13-9.14,14.25-18.22,16.21-12.61,2.72-24.79,0-36.9-3.24-2.26-.6-4.47-1.37-6.7-2.07C35.56,246.53,32.06,246.09,31.36,241.64Zm6,12c7,1.35,13.77,3.26,20.64,3.82a107.81,107.81,0,0,0,23.22-.25c11.36-1.57,19.41-8,22.62-19.51a21.34,21.34,0,0,1,1.21-2.5c1.5,11.9-12.6,28.14-27.08,32.31C62.74,271.94,42.95,265.32,37.36,253.68ZM19.84,383.06a15.54,15.54,0,0,1-.68-14.86,40.87,40.87,0,0,1,6.55-10.71C43.25,338.18,53.3,315,61.14,290.58c1.33-4.15,2.36-8.41,3.76-12.54,0.38-1.13,1.48-2.67,2.46-2.85,4.87-.86,9.81-1.33,15.53-2-9,43.58-19.77,86.07-37.6,127.4C35.59,396,25.61,392.71,19.84,383.06ZM84.9,413.69Q70,409,55,404.52c-3.18-1-3.59-2.58-2.34-5.56,17.14-40.85,27.81-83.58,36.68-126.83A7.2,7.2,0,0,1,91,268.41c6.15-5.69,12.45-11.22,19-17.1,0,3.17.41,7.18-.06,11.08-3.89,32.32-7.72,64.65-12,96.91-2.3,17.12-5.57,34.12-8.33,51.18C89.13,413.36,88,414.66,84.9,413.69Zm48.62-94.36q-2,46.73-3.67,93.48c-0.26,7.19-.07,7.44-7.28,6.77-7.91-.73-15.77-1.95-23.65-3-2.9-.38-4.06-1.37-3.54-4.9,6-40.68,11.67-81.4,17.41-122.11,0.86-6.11,1.55-12.25,2.26-17.93,6.51,4.22,12.67,8,18.57,12.2,1.16,0.82,1.91,3.1,1.83,4.66C135,298.8,134,309.06,133.52,319.33Zm33.41,98.84c-9,.88-18,1.38-27,2.08-3.22.25-4.48-1.18-4.38-4.38,0.67-21.82,1-43.65,2-65.46,0.75-17.44,2.14-34.85,3.28-52.28,0.23-3.56.6-7.12,0.85-10,8.53,0,16.29-.12,24,0.15,0.94,0,2.51,2.06,2.6,3.24,0.51,7,.72,14,0.92,21,1,33.85,3.09,67.57,11.17,100.63a18.41,18.41,0,0,1,.14,2.64C176,416.62,171.49,417.72,166.93,418.17Zm45.49-10.65c-7,2.06-14.17,3.69-21.15,5.88-3.48,1.09-4.9.06-5.46-3.27-2.45-14.58-6-29.07-7.22-43.75-2.12-24.68-2.78-49.47-4.19-74.21-0.22-3.88.78-5.92,4.9-6.81,4.37-.95,8.53-2.86,12.39-4.22,3.67,20.67,6.77,41.51,11.2,62.07,4.48,20.76,12.71,40.3,23.29,59.64C221.17,404.57,216.85,406.23,212.42,407.53Zm31.35-50.81a136.14,136.14,0,0,1,6.5,16.51c2.34,7.55.49,14.31-5.85,19.29-3.64,2.86-7.71,5.17-12.4,8.26-3-5.8-5.57-10.56-7.86-15.47-13-27.84-20.25-57.23-23.47-87.69-0.56-5.27-1-10.55-1.66-15.82-0.39-3.22.47-5.42,3.26-7.53,4.43-3.34,8.32-7.4,13-11.7,1.1,6,2.25,11.76,3.2,17.52C222.92,307,232.46,332.11,243.77,356.71ZM251.21,305a24.77,24.77,0,0,1-15.65-9.52c-12.12-16-17-34.08-14.28-54.05,0.22-1.62,1.29-3.12,2-4.68,7.11,25.33,13.12,50.47,35.82,68.32C255.81,305.05,253.44,305.39,251.21,305Zm10.29-6.43a77.93,77.93,0,0,1-15.71-18.23c-9.41-15.73-13.62-33.38-16.08-51.41-0.27-2,.45-4.1.72-6.15l1.38-.17c9.75,29,19.66,57.93,48.79,74.14C273.26,303.39,268.22,304.41,261.5,298.55Zm17.92-42.11c-0.65-8.76.42-9.95,10.15-11.06l2.28,17.19C283.57,263.07,279.78,261.19,279.42,256.45Zm0.43-15.38c-9.82,2.38-17.16-2.34-20-12.1-0.43-1.49-.4-3.21-1.15-4.49s-2.19-2.09-3.32-3.12c-0.87,1.31-2.58,2.69-2.48,3.91,1.43,16.89,5.14,33,17.19,45.92a36,36,0,0,0,22.54,11.29,19.05,19.05,0,0,1,2.75.46,7.15,7.15,0,0,1,1.61,1.35c-2.71,2.46-5.14,5.07-8,7.06-1.05.73-3.31,0.4-4.71-.18-8.27-3.4-14.92-9-20.43-16-15.72-19.78-23.44-43.07-29.21-67.19a3.13,3.13,0,0,1,.09-1.38,6.23,6.23,0,0,1,.87-1.27c1.25,1.13,2.43,2.22,3.64,3.28,5.07,4.45,10.79,7.6,17.71,7.22a6.6,6.6,0,0,0,4.65-3.21c3.86-8.09,10.19-12.4,19.17-10.71,5.77,1.09,11.9,3.2,16.55,6.64,9.31,6.88,7.87,21.17-2.31,26.69A63.46,63.46,0,0,1,279.85,241.07Zm-6.75,16c-6.58-.74-8.77-3.39-10.11-12.25,3,0.84,5.77,1.43,8.36,2.4a3.6,3.6,0,0,1,2,2.47A61.58,61.58,0,0,1,273.11,257.06Zm23.12-5.65c-0.25-5.65,0-10.67,5.95-13.79,2.14-1.12,3.43-3.89,5.06-5.86l3.29,31.1c0.25-.14,0,0.1-0.29.15C299.66,264.85,296.7,262.29,296.23,251.41ZM168.93,111.26c-12.09-.59-24.15-2-36.19-3.35-5.66-.65-7.83.32-9.17,5.87-1,4.23-1.68,8.55-2.55,12.82-2.19,10.72-.34,14.12,10,17.34,3,0.93,4,2.46,4.35,5.56,0.46,3.75,1.33,7.83,3.3,11,8.29,13.17,33.37,12.53,41.51-.89a13.88,13.88,0,0,0,1.94-6.13c0.2-3.42,1.84-4.38,5-4.67a146.68,146.68,0,0,0,16.63-2.3c7.07-1.47,9.34-4.68,10.08-12-1.42-5.05-2.44-10.27-4.38-15.12-2.52-6.32-7.56-9.76-14.49-10a64,64,0,0,0-8.41.11C180.66,110,174.75,111.55,168.93,111.26Zm6.5,44.33c-2.45,5.41-12.64,9.25-21.1,8.29-6.42-.73-11.53-5.6-13-12.37-1-4.42-.12-5.28,4.49-4.67,1.85,0.25,3.7.58,5.56,0.65,2.4,0.09,3.67.84,3.67,3.6,0,4.15,2,6.84,6.48,7s6.79-2.45,7.35-6.77c0.08-.6.27-1.19,0.59-2.54,2.25,0.37,4.82.16,6.43,1.31C176.7,150.63,176.19,153.91,175.43,155.59Zm12.35-40.47c12.39-2.3,22.11,8.75,19.25,21.24-0.39,1.71-2.94,3.82-4.78,4.16-8.08,1.49-16.28,2.4-25.52,3.67-13.95-1.84-28.8-3.43-43.51-5.88-7.22-1.2-7.68-2.82-6.42-10.16,0.61-3.53,1.32-7,2-10.56,0.49-2.62,1.43-4.1,4.71-3.41A137.84,137.84,0,0,0,187.78,115.12ZM109.19,61.94c19.91-17.32,44-25.88,68.92-32.84C149.58,28.5,126.53,39.28,109.19,61.94ZM283,216.78c-6.62-2.09-13.31-1.2-19.8.7-1.28.37-2,2.48-3,3.79,1.52,0.63,3.06,1.81,4.57,1.78,2.66-.06,5.31-0.86,8.59-1.47,0,4.66-.28,8.4.13,12.07,0.18,1.6,1.79,3,2.75,4.55,1-1.51,2.78-2.93,3-4.55,0.46-3.49.14-7.09,0.14-10.65l1.43-.82a35.49,35.49,0,0,0,5.47,3c1.39,0.49,3.08.17,4.63,0.21-0.3-1.64,0-3.91-1-4.8A19,19,0,0,0,283,216.78Z"/></svg>
